<svg id="グループ_104" data-name="グループ 104" xmlns="http://www.w3.org/2000/svg" xmlns:xlink="http://www.w3.org/1999/xlink" width="25" height="23.814" viewBox="0 0 25 23.814">
  <defs>
    <clipPath id="clip-path">
      <rect id="長方形_63" data-name="長方形 63" width="25" height="23.814" fill="none"/>
    </clipPath>
    <clipPath id="clip-path-3">
      <rect id="長方形_60" data-name="長方形 60" width="10.229" height="10.259" fill="none"/>
    </clipPath>
    <clipPath id="clip-path-4">
      <rect id="長方形_61" data-name="長方形 61" width="9.035" height="9.066" fill="none"/>
    </clipPath>
  </defs>
  <g id="グループ_103" data-name="グループ 103" clip-path="url(#clip-path)">
    <g id="グループ_102" data-name="グループ 102" transform="translate(0 0)">
      <g id="グループ_101" data-name="グループ 101" clip-path="url(#clip-path)">
        <path id="パス_14" data-name="パス 14" d="M4.905,26.957H4.158a2.012,2.012,0,0,1-2.012-2.012V19.31A2.012,2.012,0,0,1,4.158,17.3h5.5a2.012,2.012,0,0,0,2.012-2.012v-6.7a2.013,2.013,0,0,1,2.012-2.012H18.5a2.013,2.013,0,0,1,2.012,2.012v2.748a2.012,2.012,0,0,0,2.012,2.012h1.487a2.012,2.012,0,0,1,2.012,2.012v3.586a2.012,2.012,0,0,1-2.012,2.012H22.672a2.012,2.012,0,0,0-2.012,2.012v1.976a2.012,2.012,0,0,1-2.012,2.012H13.679a2.012,2.012,0,0,1-2.012-2.012,2.012,2.012,0,0,0-2.012-2.012H8.93a2.012,2.012,0,0,0-2.012,2v.03a2.012,2.012,0,0,1-2.012,2" transform="translate(-1.026 -3.143)" fill="#1e525f"/>
        <path id="パス_15" data-name="パス 15" d="M2.759,24.883H2.012A2.012,2.012,0,0,1,0,22.871V17.236a2.012,2.012,0,0,1,2.012-2.012h5.5a2.012,2.012,0,0,0,2.012-2.012v-6.7A2.013,2.013,0,0,1,11.533,4.5h4.822a2.013,2.013,0,0,1,2.012,2.012V9.26a2.012,2.012,0,0,0,2.012,2.012h1.487a2.013,2.013,0,0,1,2.012,2.012v3.586a2.013,2.013,0,0,1-2.012,2.012H20.526A2.012,2.012,0,0,0,18.514,20.9v1.976A2.012,2.012,0,0,1,16.5,24.883H11.533a2.012,2.012,0,0,1-2.012-2.012,2.012,2.012,0,0,0-2.012-2.012H6.784a2.012,2.012,0,0,0-2.012,2v.03a2.012,2.012,0,0,1-2.012,2" transform="translate(0 -2.152)" fill="#37b6e0"/>
        <g id="グループ_97" data-name="グループ 97" transform="translate(6.299 0)" opacity="0.64">
          <g id="グループ_96" data-name="グループ 96" transform="translate(0 0)">
            <g id="グループ_95" data-name="グループ 95" clip-path="url(#clip-path-3)">
              <rect id="長方形_59" data-name="長方形 59" width="12.254" height="2.233" transform="matrix(0.706, -0.709, 0.709, 0.706, 0, 8.683)" fill="#fff"/>
            </g>
          </g>
        </g>
        <g id="グループ_100" data-name="グループ 100" transform="translate(8.543 1.771)" opacity="0.64">
          <g id="グループ_99" data-name="グループ 99">
            <g id="グループ_98" data-name="グループ 98" clip-path="url(#clip-path-4)">
              <path id="パス_16" data-name="パス 16" d="M16.757,12.459l-.389-.382,8.646-8.683.389.382Z" transform="translate(-16.368 -3.394)" fill="#fff"/>
            </g>
          </g>
        </g>
      </g>
    </g>
  </g>
</svg>
