<svg xmlns="http://www.w3.org/2000/svg" width="12.94" height="13.94" viewBox="0 0 12.94 13.94">
  <path id="icon-search" d="M11.292,11.018l3.5,3.775a.739.739,0,0,1-.04.949.615.615,0,0,1-.881.03L10.377,12.01A4.931,4.931,0,0,1,3.3,11.294,5.91,5.91,0,0,1,3.523,3.64a4.924,4.924,0,0,1,7.1-.239,5.9,5.9,0,0,1,.665,7.624Zm-4.1.769a4.052,4.052,0,0,0,3.893-4.194A4.052,4.052,0,0,0,7.191,3.4,4.052,4.052,0,0,0,3.3,7.593,4.052,4.052,0,0,0,7.191,11.787Z" transform="translate(-2.002 -2.002)" fill="#fbad7c"/>
</svg>
