<svg xmlns="http://www.w3.org/2000/svg" width="18" height="18" viewBox="0 0 18 18">
  <path id="icon-store" d="M18.2,10.514V18.2A1.8,1.8,0,0,1,16.4,20H13.7a1.8,1.8,0,0,1-1.8-1.8V14.6H10.1v3.6A1.8,1.8,0,0,1,8.3,20H5.6a1.8,1.8,0,0,1-1.8-1.8V10.514A3.6,3.6,0,0,1,2,7.4V6.5a.9.9,0,0,1,.09-.405l1.8-3.6A.9.9,0,0,1,4.7,2H17.3a.9.9,0,0,1,.81.495l1.8,3.6A1.06,1.06,0,0,1,20,6.5v.9A3.6,3.6,0,0,1,18.2,10.514ZM16.4,11a3.577,3.577,0,0,1-2.7-1.215,3.591,3.591,0,0,1-5.4,0A3.591,3.591,0,0,1,5.6,11v7.2H8.3V14.6a1.805,1.805,0,0,1,1.8-1.8h1.8a1.8,1.8,0,0,1,1.8,1.8v3.6h2.7Zm1.8-3.6H14.6a1.8,1.8,0,1,0,3.6,0Zm-5.4,0H9.2a1.8,1.8,0,1,0,3.6,0Zm-5.4,0H3.8a1.8,1.8,0,1,0,3.6,0ZM17.642,5.6l-.9-1.8H5.258l-.9,1.8Z" transform="translate(-2 -2)" fill="#707070"/>
</svg>
