<svg xmlns="http://www.w3.org/2000/svg" width="18.02" height="17.233" viewBox="0 0 18.02 17.233">
  <path id="icon-star" d="M5.371,19.126a.857.857,0,0,1-1.243-.909l.883-5.169L1.256,9.4a.857.857,0,0,1,.48-1.466l5.186-.754,2.314-4.7a.857.857,0,0,1,1.543,0l2.314,4.7,5.194.754a.857.857,0,0,1,.471,1.457l-3.754,3.66.891,5.169a.857.857,0,0,1-1.251.909l-4.629-2.443L5.371,19.126Zm4.243-4.174a.857.857,0,0,1,.8,0l3.5,1.843-.669-3.9a.857.857,0,0,1,.249-.754l2.829-2.76-3.909-.574a.857.857,0,0,1-.651-.463L10.008,4.794,8.259,8.342a.857.857,0,0,1-.643.463L3.7,9.38l2.829,2.76a.857.857,0,0,1,.257.754l-.677,3.9,3.506-1.843Z" transform="translate(-0.995 -1.996)" fill="#707070"/>
</svg>
