<svg xmlns="http://www.w3.org/2000/svg" viewBox="0 0 60.13 97.5"><defs><style>.cls-1{fill:#f0e7d8;}.cls-2{fill:#efcd61;}</style></defs><g id="レイヤー_2" data-name="レイヤー 2"><g id="レイヤー_1-2" data-name="レイヤー 1"><path class="cls-1" d="M.6,96.5a12.2,12.2,0,0,1-.6-4c0-1.58.11-2.39,1-7.6a.54.54,0,0,1,.54-.45.48.48,0,0,1,.5.43V85c-.14.75-.38,1.7-.54,2.6a30.23,30.23,0,0,0-.59,4.75c0,.1,0,1.51.26,1.51S2,92.37,2,92.3a.44.44,0,0,1,.4-.3.41.41,0,0,1,.41.42h0a.46.46,0,0,1-.06.23,11.54,11.54,0,0,0-1.19,3.2v.6c0,.23,0,.59-.47.59C.93,97.06.72,96.92.6,96.5Zm9.67-7.94A12,12,0,0,0,11.56,88a.41.41,0,0,1,.21-.05.45.45,0,0,1,.45.44c0,.41-.52.6-2,1.08v1a18.45,18.45,0,0,0,.08,2c0,.35,0,.79,0,1.23.34.17,2.39,1.28,2.39,1.9a.55.55,0,0,1-.5.55.51.51,0,0,1-.4-.19,6.88,6.88,0,0,0-1.56-1.28,2.79,2.79,0,0,1-2.84,2.17c-1.29,0-2.65-.85-2.65-2s1.41-1.79,2.92-1.79a6.08,6.08,0,0,1,1.79.28,6,6,0,0,0,0-.81c-.07-1-.07-1.87-.07-2.84a10.88,10.88,0,0,1-2.6.37c-1.19,0-1.74-.19-1.74-.59a.43.43,0,0,1,.4-.45h0a.71.71,0,0,1,.2,0,4.3,4.3,0,0,0,1.07.14,11.26,11.26,0,0,0,2.64-.41V88.3a9,9,0,0,0-.18-1.79v-.07A.46.46,0,0,1,9.72,86h0c.38,0,.6.22.6,1.58v.55ZM7.1,85.75c-.84,0-1.52,0-1.52-.54a.41.41,0,0,1,.4-.42h.19a5.26,5.26,0,0,0,.89.07,16.74,16.74,0,0,0,4.05-.68h.16a.47.47,0,0,1,.49.45h0c0,.19-.13.39-.47.48a18.71,18.71,0,0,1-4.21.63Zm.54,8.16c-1.08,0-2,.41-2,1s1,1.1,1.79,1.1a1.88,1.88,0,0,0,1.91-1.76,4.81,4.81,0,0,0-1.76-.36Zm4.67-9.42A5.93,5.93,0,0,0,10.72,83a.31.31,0,0,1-.18-.28A.39.39,0,0,1,11,82.4c.41,0,2.13,1.19,2.13,1.84a.45.45,0,0,1-.45.45.38.38,0,0,1-.36-.2Zm1.6-1.13a6,6,0,0,0-1.63-1.45.34.34,0,0,1,.2-.64h0c.45,0,2.19,1.19,2.19,1.83a.46.46,0,0,1-.43.46.43.43,0,0,1-.37-.2Z"/><path class="cls-1" d="M18.39,87.57c-1.11,0-1.68-.1-1.68-.64a.43.43,0,0,1,.45-.43h0a.67.67,0,0,1,.2,0,3.86,3.86,0,0,0,1,.09,5.79,5.79,0,0,0,1.31-.15c.5-3.24.54-3.4,1-3.4a.49.49,0,0,1,.51.47v0a.33.33,0,0,1,0,.14c-.15.52-.33,1.45-.51,2.49a7.42,7.42,0,0,0,1.72-.9.66.66,0,0,1,.38-.12.5.5,0,0,1,.5.5.61.61,0,0,1-.39.54,16.2,16.2,0,0,1-2.39,1c-.32,2-.6,4.06-.72,4.81a7.49,7.49,0,0,1,4.59-1.92c2.08,0,3.25,1.2,3.25,2.69a3.78,3.78,0,0,1-1.08,2.5,8.73,8.73,0,0,1-5,2.21.5.5,0,0,1-.59-.41s0,0,0-.06a.61.61,0,0,1,.6-.54c2.72-.32,5-1.84,5-3.77,0-.95-.72-1.72-2.29-1.72a5.69,5.69,0,0,0-3.94,1.83c-.27.28-.43.78-.85.89a.24.24,0,0,1-.12,0c-.31,0-.6-.29-.6-.82,0-.29.67-4.78.75-5.45A5.8,5.8,0,0,1,18.39,87.57Z"/><path class="cls-1" d="M33,87.48a4.55,4.55,0,0,1-1.67-.28.55.55,0,0,1-.3-.49.4.4,0,0,1,.36-.44h0a.59.59,0,0,1,.23,0,4.71,4.71,0,0,0,1.58.25,6.44,6.44,0,0,0,1.45-.16,6.78,6.78,0,0,0,.13-1.2,8.76,8.76,0,0,0-.08-1v-.07a.45.45,0,0,1,.44-.45h.05c.45,0,.6.31.6,1.17a6.27,6.27,0,0,1-.13,1.29,6.68,6.68,0,0,0,1.47-.72.43.43,0,0,1,.25-.07.53.53,0,0,1,.5.48c0,.24-.18.65-2.45,1.29a69.88,69.88,0,0,1-3.42,9.33.66.66,0,0,1-.6.4.48.48,0,0,1-.5-.45v0a1,1,0,0,1,.1-.42,55.47,55.47,0,0,0,3.37-8.59A8.54,8.54,0,0,1,33,87.48ZM41,96.74c-2.52,0-4-1.13-4-1.73a.54.54,0,0,1,.52-.54.44.44,0,0,1,.37.2,3.34,3.34,0,0,0,2.76,1,13.82,13.82,0,0,0,1.93-.15h.11a.48.48,0,0,1,.52.44V96C43.13,96.43,42.74,96.74,41,96.74Zm1.87-7.47a7.2,7.2,0,0,0-2.48-.44,4.31,4.31,0,0,0-1.59.25.45.45,0,0,1-.16,0,.41.41,0,0,1-.41-.42h0c0-.69,1.79-.75,2.33-.75a7.86,7.86,0,0,1,2.59.43.46.46,0,0,1,.34.47.45.45,0,0,1-.41.48h0A.43.43,0,0,1,42.83,89.27Z"/><path class="cls-1" d="M47.44,84.92A7.27,7.27,0,0,0,51,84.15a.8.8,0,0,1,.34-.11.5.5,0,0,1,.52.49h0a.61.61,0,0,1-.39.54c-1,.53-3.84,4.26-3.84,7.76,0,1.7.72,3.38,2.51,3.38s5-1.9,5-7.16a5.87,5.87,0,0,0-.77-3.2,1,1,0,0,1-.11-.39.47.47,0,0,1,.46-.48h0a.73.73,0,0,1,.66.53,8.31,8.31,0,0,0,3.78,3.68.59.59,0,0,1,.34.51.52.52,0,0,1-.51.54h0a7.6,7.6,0,0,1-2.83-2.13c-.12-.16-.19-.23-.21-.23s0,0,0,0,0,.27.05.4a7.85,7.85,0,0,1,.09,1.19c0,3.92-2.58,7.76-5.91,7.76-1.13,0-3.46-.59-3.46-4.29a12.84,12.84,0,0,1,2.74-7.09,1.07,1.07,0,0,0,.15-.22s0,0,0,0l-.16,0a13.6,13.6,0,0,1-2.2.25c-.34,0-.6-.14-.6-.48a.54.54,0,0,1,.58-.5h.29Zm10.47,1a5.69,5.69,0,0,0-1.73-1.27.33.33,0,0,1-.24-.3.44.44,0,0,1,.45-.38c.4,0,2.28,1,2.28,1.66a.46.46,0,0,1-.43.45A.42.42,0,0,1,57.91,85.87Zm1.49-1.29a6,6,0,0,0-1.79-1.27.37.37,0,0,1-.25-.3.41.41,0,0,1,.44-.38h0c.39,0,2.32,1,2.32,1.65a.44.44,0,0,1-.44.46.37.37,0,0,1-.27-.16Z"/><path class="cls-2" d="M31.13,0A26,26,0,0,0,5.18,26c0,15,11.94,24.43,18.4,35.63,6.18,10.71,6.18,14.83,7.55,14.83s1.37-4.12,7.55-14.83C45.15,50.39,57.09,41,57.09,26a26,26,0,0,0-26-26Zm0,35.88A9.93,9.93,0,1,1,41.06,26h0a9.92,9.92,0,0,1-9.92,9.92Z"/><path class="cls-1" d="M36.77,34.13A9.92,9.92,0,1,0,23,31.59a9.83,9.83,0,0,0,2.46,2.48c-4.12,2.39-9,6.15-9,10.26,0,7.07,7,17.26,7,17.26C29.59,72.3,29.58,76.42,31,76.42h.17c1.38,0,1.37-4.12,7.55-14.83,0,0,7-10.19,7-17.26C45.71,40.25,40.87,36.54,36.77,34.13Z"/></g></g></svg>