<svg xmlns="http://www.w3.org/2000/svg" width="84" height="84" viewBox="0 0 84 84">
  <g id="グループ_182" data-name="グループ 182" transform="translate(-275 -622)">
    <circle id="楕円形_124" data-name="楕円形 124" cx="42" cy="42" r="42" transform="translate(275 622)" fill="#fbab7e"/>
    <path id="icon-emotion-happy" d="M25.027,48.055A23.027,23.027,0,1,1,48.055,25.027,23.027,23.027,0,0,1,25.027,48.055Zm0-4.605A18.422,18.422,0,1,0,6.605,25.027,18.422,18.422,0,0,0,25.027,43.449Zm-8.152-10.27a2.312,2.312,0,0,1,3.27-3.27,6.908,6.908,0,0,0,9.764,0,2.312,2.312,0,1,1,3.27,3.27,11.514,11.514,0,0,1-16.3,0Zm1.243-10.454a2.3,2.3,0,1,1,2.3-2.3A2.3,2.3,0,0,1,18.119,22.725Zm13.816,0a2.3,2.3,0,1,1,2.3-2.3A2.3,2.3,0,0,1,31.936,22.725Z" transform="translate(292 639)" fill="#fcfcfc"/>
  </g>
</svg>
