<svg xmlns="http://www.w3.org/2000/svg" width="20" height="20" viewBox="0 0 20 20">
  <g id="グループ_139" data-name="グループ 139" transform="translate(-1276 -3162)">
    <g id="グループ_94" data-name="グループ 94" transform="translate(411 2262)">
      <path id="icon-edit" d="M6.3,12.307,16.31,2.3a1,1,0,0,1,1.4,0l4,4a1,1,0,0,1,0,1.4L11.707,17.711a1,1,0,0,1-.7.3H7a1,1,0,0,1-1-1v-4a1,1,0,0,1,.3-.7ZM8,16.01H10.6L19.6,7,17.011,4.412,8,13.418Zm10.007-2a1,1,0,1,1,2,0v6a2,2,0,0,1-2,2H4a2,2,0,0,1-2-2V6A2.007,2.007,0,0,1,4,4h6a1,1,0,1,1,0,2H4v14.01h14.01Z" transform="translate(863 897.986)" fill="#fcfcfc"/>
    </g>
  </g>
</svg>
